<svg xmlns="http://www.w3.org/2000/svg" width="921.827" height="164.708" viewBox="0 0 243.9 43.579" xmlns:v="https://vecta.io/nano"><path d="M221.34 0h-11.667l-.1 21.294-11-21.294h-11.92v43.58h11.638l.1-21.245 11.033 21.245H221.3l.004-20.996L232.2 43.58h11.7L221.34 0m-62.925 32.46v-4.704h12.38v4.704h-12.38m0-21.29h12.38v4.95h-12.38v-4.95M181.69 0h-34.42v43.58h34.42V0M123.5 27.756l3.63.001.557.004.467.008.388.015.32.024.26.034.213.047.176.06.15.077.135.095.13.115.136.137.215.24.175.26.135.274.096.286.056.294.017.3-.023.3-.062.297-.1.29-.14.282-.178.268-.216.25-.137.132-.133.112-.138.094-.154.078-.18.064-.215.052-.26.042-.317.033-.383.027-.46.022-.546.02-.642.02-2.972.1v-4.753m0-16.587h2.476l.725.008.644.024.57.042.5.063.434.085.376.1.323.136.275.164.233.194.197.226.166.26.14.297.08.18.065.16.05.145.036.133.022.125.007.12-.007.12-.022.125-.036.133-.05.145-.065.16-.08.18-.14.297-.166.26-.197.226-.233.194-.275.164-.323.136-.376.11-.434.085-.5.063-.57.042-.644.024-.725.007H123.5v-4.95M111.862 0v43.58h19.25l.518-.112 1.047-.31 1.016-.387.98-.458.94-.525.894-.6.843-.65.788-.707.728-.76.662-.81.592-.854.516-.896.29-.586.255-.552.22-.526.188-.51.158-.5.13-.5.103-.51.08-.526.057-.552.036-.587.018-.63V30.2v-.34l-.012-.68-.036-.655-.06-.63-.085-.6-.1-.59-.136-.57-.16-.554-.188-.538-.214-.524-.24-.512-.268-.502-.296-.493-.693-1.09.062-.11.07-.124.074-.132.076-.137.41-.733.316-.567.282-.554.248-.545.216-.542.186-.544.156-.55.13-.562.102-.58.077-.6.053-.628.03-.66.01-.698-.003-.45-.008-.42-.014-.395-.02-.37-.026-.35-.032-.328-.04-.3-.046-.293-.053-.278-.06-.265-.07-.255-.076-.245-.476-1.245-.57-1.18-.66-1.113-.745-1.04-.823-.96-.897-.877-.965-.79-1.027-.696-1.085-.598L133.338.7l-1.184-.387-1.225-.275-.082-.025.01-.003h-18.996M78.434 0v11.07l.94.42.323.162.287.19.25.214.21.236.172.256.132.274.09.29.048.302.005.313-.04.322-.085.33-.13.333-.073.138-.083.13-.094.123-.106.117-.12.11-.134.105-.148.1-.164.095-.18.09-.2.087-.218.084-.238.08-.097.045-.082.088-.034.076-.034.076-.056.24-.044.35-.1 15.49L89.68 43.58h16.343L87.1 24.66l.11-.11.124-.124.27-.27.137-.137.133-.132.464-.464.63-.682.577-.71.524-.735.47-.76.416-.784.36-.807.307-.83.252-.85.197-.87.14-.9.085-.91.028-.926-.027-.966-.082-.93-.137-.9-.194-.868-.25-.84-.3-.815-.37-.792-.43-.77-.5-.752-.552-.736-.615-.722-.68-.7-.5-.474-.508-.443-.516-.412-.525-.382-.534-.352-.543-.323-.552-.293-.562-.264-.572-.235-.58-.207-.592-.178-.88-.22-.118-.06L81.24 0h-2.807M73.48 0h-34.42v11.17h34.42V0m0 27.694V16.058l-34.296.124-.028 2.646-.096 8.866h34.42m0 4.766h-34.42v11.12h34.42V32.46M34.1 43.58V0h-11.4l-.087 21.454L11.532 0H0l22.338 43.58H34.1" fill="#fff" fill-rule="evenodd"/></svg>